<svg width="419" height="660" fill="none" xmlns="http://www.w3.org/2000/svg"><g filter="url(#a)"><path fill-rule="evenodd" clip-rule="evenodd" d="M88.776 55.57h191.233c18.341 0 33.208 14.235 33.208 31.795v435.27c0 17.56-14.867 31.796-33.208 31.796H88.776c-18.34 0-33.208-14.236-33.208-31.796V87.365c0-17.56 14.868-31.795 33.208-31.795Z" fill="#213648"/></g><path opacity=".596" fill-rule="evenodd" clip-rule="evenodd" d="M280.749 55H87.923c-9.003.549-17.306 4.657-24.908 12.324 4.89-4.268 13.61-9.98 25.14-9.98h192.362c11.529 0 20.25 5.712 25.139 9.98-7.602-7.667-15.905-11.775-24.907-12.324Z" fill="url(#b)" fill-opacity=".65"/><path opacity=".75" fill-rule="evenodd" clip-rule="evenodd" d="M307.999 517.671V89.981c0-11.474-4.217-15.717-6.733-18.44-2.516-2.724-2.623-4.114.992-2.057 3.615 2.056 10.845 8.047 10.845 20.498V517.67c0 12.451-7.23 18.441-10.845 20.498-3.615 2.056-3.508.667-.992-2.057s6.733-6.966 6.733-18.441Z" fill="url(#c)"/><path opacity=".75" fill-rule="evenodd" clip-rule="evenodd" d="M60.672 517.671V89.981c0-11.474 4.217-15.717 6.733-18.44 2.516-2.724 2.623-4.114-.992-2.057-3.615 2.056-10.845 8.047-10.845 20.498V517.67c0 12.451 7.23 18.441 10.845 20.498 3.615 2.056 3.508.667.992-2.057s-6.733-6.966-6.733-18.441Z" fill="url(#d)"/><path fill-rule="evenodd" clip-rule="evenodd" d="M53 158.556a2 2 0 0 1 2-2h.965a2 2 0 0 1 2 2v60.351a2 2 0 0 1-2 2H55a2 2 0 0 1-2-2v-60.351ZM310.535 211.043a2 2 0 0 1 2-2h.965a2 2 0 0 1 2 2v42.95a2 2 0 0 1-2 2h-.965a2 2 0 0 1-2-2v-42.95Z" fill="#2E423C"/><g clip-path="url(#e)"><path fill-rule="evenodd" clip-rule="evenodd" d="M161.676 67.445H87.27c-11.105 0-19.196 7.563-19.196 17.44v422.391c0 12.879 12.502 24.291 26.64 24.291h179.332c13.618 0 26.64-11.5 26.64-24.291V86.028c0-11.84-8.79-18.513-19.196-18.584h-75.586c-.286.047-5.479 2.182-7.673 7.564-2.195 5.381-6.61 9.671-11.444 9.671h-5.615c-2.298 0-8.348-2.23-11.412-9.671-3.063-7.442-7.797-7.517-8.084-7.563Z" fill="#fff"/><mask id="f" style="mask-type:alpha" maskUnits="userSpaceOnUse" x="68" y="67" width="233" height="465"><path fill-rule="evenodd" clip-rule="evenodd" d="M161.676 67.445H87.27c-11.105 0-19.196 7.563-19.196 17.44v422.391c0 12.879 12.502 24.291 26.64 24.291h179.332c13.618 0 26.64-11.5 26.64-24.291V86.028c0-11.84-8.79-18.513-19.196-18.584h-75.586c-.286.047-5.479 2.182-7.673 7.564-2.195 5.381-6.61 9.671-11.444 9.671h-5.615c-2.298 0-8.348-2.23-11.412-9.671-3.063-7.442-7.797-7.517-8.084-7.563Z" fill="#fff"/></mask><g mask="url(#f)"><path fill="url(#g)" d="M68 67.445h233v465H68z"/><path d="M147.504 196v-17.328h-4.128v-2.64c1.323 0 2.389-.123 3.2-.368.821-.256 1.435-.619 1.84-1.088a3.14 3.14 0 0 0 .72-1.712h3.104V196h-4.736Zm9.992 0V192.512c0-1.173.218-2.187.656-3.04a7.404 7.404 0 0 1 1.728-2.24c.725-.64 1.514-1.2 2.368-1.68a60.86 60.86 0 0 1 2.592-1.36 34.057 34.057 0 0 0 2.368-1.28c.725-.437 1.306-.923 1.744-1.456.437-.533.656-1.163.656-1.888 0-.928-.326-1.685-.976-2.272-.64-.587-1.52-.88-2.64-.88-1.163 0-2.15.336-2.96 1.008-.811.672-1.312 1.685-1.504 3.04h-4.464c.021-1.472.362-2.805 1.024-4 .672-1.205 1.674-2.16 3.008-2.864 1.333-.704 3.008-1.056 5.024-1.056 1.728 0 3.216.293 4.464.88 1.258.587 2.229 1.403 2.912 2.448.682 1.045 1.024 2.267 1.024 3.664 0 1.163-.214 2.165-.64 3.008a6.868 6.868 0 0 1-1.696 2.16 13.058 13.058 0 0 1-2.32 1.568c-.843.448-1.686.864-2.528 1.248-.832.384-1.6.779-2.304 1.184-.704.395-1.27.843-1.696 1.344-.427.501-.64 1.104-.64 1.808v.208h11.792V196h-16.992Zm25.208-16.144v5.008h-5.12v-5.008h5.12Zm0 11.056v4.992h-5.12v-4.992h5.12Zm13.747-18.048h4.592v14.096h3.568v3.92h-3.568V196h-4.496l.016-5.12h-10.656v-3.84l10.544-14.176Zm-6.224 14.096h6.336v-8.48l-6.336 8.48Zm25.208 9.392c-1.44 0-2.784-.277-4.032-.832-1.248-.555-2.266-1.333-3.056-2.336-.789-1.013-1.232-2.197-1.328-3.552h4.448c.192.896.619 1.627 1.28 2.192.662.555 1.494.832 2.496.832 1.11 0 2.08-.261 2.912-.784.843-.523 1.472-1.355 1.888-2.496.427-1.141.576-2.635.448-4.48a4.714 4.714 0 0 1-1.248 1.488 5.94 5.94 0 0 1-1.84.976c-.704.224-1.488.336-2.352.336-1.568 0-2.96-.293-4.176-.88-1.205-.597-2.154-1.44-2.848-2.528-.682-1.099-1.024-2.4-1.024-3.904 0-1.515.363-2.864 1.088-4.048.726-1.184 1.739-2.112 3.04-2.784 1.302-.672 2.827-1.008 4.576-1.008 1.963 0 3.654.469 5.072 1.408 1.43.928 2.523 2.251 3.28 3.968.768 1.707 1.152 3.717 1.152 6.032 0 2.763-.394 5.067-1.184 6.912-.778 1.835-1.898 3.211-3.36 4.128-1.461.907-3.205 1.36-5.232 1.36Zm.416-12.368a4.36 4.36 0 0 0 1.888-.432c.619-.299 1.126-.672 1.52-1.12.395-.448.592-.912.592-1.392.011-1.035-.154-1.92-.496-2.656-.33-.747-.8-1.317-1.408-1.712-.597-.395-1.296-.592-2.096-.592-.736 0-1.392.171-1.968.512a3.613 3.613 0 0 0-1.36 1.44c-.33.619-.496 1.333-.496 2.144 0 1.205.352 2.144 1.056 2.816.704.661 1.627.992 2.768.992Z" fill="#fff"/></g></g><defs><linearGradient id="b" x1="63.015" y1="55" x2="63.015" y2="67.324" gradientUnits="userSpaceOnUse"><stop stop-color="#454545"/><stop offset=".226" stop-color="#999"/><stop offset="1" stop-color="#fff"/></linearGradient><linearGradient id="c" x1="313.103" y1="140.747" x2="303.642" y2="140.747" gradientUnits="userSpaceOnUse"><stop stop-color="#fff" stop-opacity=".01"/><stop offset=".222" stop-color="#BABABA"/><stop offset=".547" stop-color="#fff" stop-opacity=".01"/><stop offset="1" stop-color="#fff" stop-opacity=".01"/></linearGradient><linearGradient id="d" x1="55.568" y1="140.487" x2="65.044" y2="140.487" gradientUnits="userSpaceOnUse"><stop stop-color="#fff" stop-opacity=".01"/><stop offset=".222" stop-color="#BABABA"/><stop offset=".547" stop-color="#fff" stop-opacity=".01"/><stop offset="1" stop-color="#fff" stop-opacity=".01"/></linearGradient><linearGradient id="g" x1="68.907" y1="67.445" x2="68.907" y2="528.824" gradientUnits="userSpaceOnUse"><stop stop-color="#9CB6CD"/><stop offset=".421" stop-color="#9AB3CA"/><stop offset=".717" stop-color="#557496"/><stop offset="1" stop-color="#475178"/></linearGradient><clipPath id="e"><path fill="#fff" transform="translate(68.074 67.445)" d="M0 0h233v465H0z"/></clipPath><filter id="a" x=".568" y=".569" width="417.649" height="658.861" filterUnits="userSpaceOnUse" color-interpolation-filters="sRGB"><feFlood flood-opacity="0" result="BackgroundImageFix"/><feColorMatrix in="SourceAlpha" values="0 0 0 0 0 0 0 0 0 0 0 0 0 0 0 0 0 0 127 0" result="hardAlpha"/><feOffset dx="25" dy="25"/><feGaussianBlur stdDeviation="40"/><feColorMatrix values="0 0 0 0 0.212302 0 0 0 0 0.32521 0 0 0 0 0.419299 0 0 0 0.300727 0"/><feBlend in2="BackgroundImageFix" result="effect1_dropShadow_0_4911"/><feBlend in="SourceGraphic" in2="effect1_dropShadow_0_4911" result="shape"/></filter></defs></svg>